<mxfile host="Electron" modified="2023-10-28T19:55:19.942Z" agent="Mozilla/5.0 (Macintosh; Intel Mac OS X 10_15_7) AppleWebKit/537.36 (KHTML, like Gecko) draw.io/22.0.3 Chrome/114.0.5735.289 Electron/25.8.4 Safari/537.36" etag="cMuyPFLO7fdklSEa2I8J" version="22.0.3" type="device">
  <diagram name="Drill down Client and the Exp API when it&#39;s finishing a ride" id="sZPMeks1si3X4ankGnfA">
    <mxGraphModel dx="2770" dy="1771" grid="1" gridSize="10" guides="1" tooltips="1" connect="1" arrows="1" fold="1" page="1" pageScale="1" pageWidth="1100" pageHeight="850" math="0" shadow="0">
      <root>
        <mxCell id="VvUdo0zjaCuZu8YFKnKq-0" />
        <mxCell id="VvUdo0zjaCuZu8YFKnKq-1" parent="VvUdo0zjaCuZu8YFKnKq-0" />
        <mxCell id="VvUdo0zjaCuZu8YFKnKq-2" value="exp-ride-x-press" style="swimlane;horizontal=0;whiteSpace=wrap;html=1;" parent="VvUdo0zjaCuZu8YFKnKq-1" vertex="1">
          <mxGeometry x="-1100" y="30" width="2000" height="200" as="geometry" />
        </mxCell>
        <mxCell id="x7NhefQ3XoewuiwnYH2W-3" value="" style="ellipse;whiteSpace=wrap;html=1;aspect=fixed;fillColor=#000000;" parent="VvUdo0zjaCuZu8YFKnKq-2" vertex="1">
          <mxGeometry x="710" y="90" width="50" height="50" as="geometry" />
        </mxCell>
        <mxCell id="VvUdo0zjaCuZu8YFKnKq-3" value="Client - Mobile App" style="swimlane;horizontal=0;whiteSpace=wrap;html=1;" parent="VvUdo0zjaCuZu8YFKnKq-1" vertex="1">
          <mxGeometry x="-1100" y="230" width="2000" height="200" as="geometry" />
        </mxCell>
        <mxCell id="VvUdo0zjaCuZu8YFKnKq-4" value="Get Client Geo location" style="points=[[0.25,0,0],[0.5,0,0],[0.75,0,0],[1,0.25,0],[1,0.5,0],[1,0.75,0],[0.75,1,0],[0.5,1,0],[0.25,1,0],[0,0.75,0],[0,0.5,0],[0,0.25,0]];shape=mxgraph.bpmn.task;whiteSpace=wrap;rectStyle=rounded;size=10;html=1;container=1;expand=0;collapsible=0;taskMarker=abstract;" parent="VvUdo0zjaCuZu8YFKnKq-3" vertex="1">
          <mxGeometry x="170" y="60" width="120" height="80" as="geometry" />
        </mxCell>
        <mxCell id="VvUdo0zjaCuZu8YFKnKq-5" value="Display Ride information" style="points=[[0.25,0,0],[0.5,0,0],[0.75,0,0],[1,0.25,0],[1,0.5,0],[1,0.75,0],[0.75,1,0],[0.5,1,0],[0.25,1,0],[0,0.75,0],[0,0.5,0],[0,0.25,0]];shape=mxgraph.bpmn.task;whiteSpace=wrap;rectStyle=rounded;size=10;html=1;container=1;expand=0;collapsible=0;taskMarker=abstract;" parent="VvUdo0zjaCuZu8YFKnKq-3" vertex="1">
          <mxGeometry x="520" y="60" width="120" height="80" as="geometry" />
        </mxCell>
        <mxCell id="x7NhefQ3XoewuiwnYH2W-1" value="Complete &lt;br&gt;ride/driver evaluation?" style="points=[[0.25,0.25,0],[0.5,0,0],[0.75,0.25,0],[1,0.5,0],[0.75,0.75,0],[0.5,1,0],[0.25,0.75,0],[0,0.5,0]];shape=mxgraph.bpmn.gateway2;html=1;verticalLabelPosition=bottom;labelBackgroundColor=#ffffff;verticalAlign=top;align=center;perimeter=rhombusPerimeter;outlineConnect=0;outline=none;symbol=none;" parent="VvUdo0zjaCuZu8YFKnKq-3" vertex="1">
          <mxGeometry x="710" y="80" width="50" height="40" as="geometry" />
        </mxCell>
        <mxCell id="VvUdo0zjaCuZu8YFKnKq-34" value="Complete &lt;br&gt;satisfaction survey" style="points=[[0.25,0,0],[0.5,0,0],[0.75,0,0],[1,0.25,0],[1,0.5,0],[1,0.75,0],[0.75,1,0],[0.5,1,0],[0.25,1,0],[0,0.75,0],[0,0.5,0],[0,0.25,0]];shape=mxgraph.bpmn.task;whiteSpace=wrap;rectStyle=rounded;size=10;html=1;container=1;expand=0;collapsible=0;taskMarker=abstract;" parent="VvUdo0zjaCuZu8YFKnKq-3" vertex="1">
          <mxGeometry x="830" y="60" width="120" height="80" as="geometry" />
        </mxCell>
        <mxCell id="x7NhefQ3XoewuiwnYH2W-2" style="edgeStyle=orthogonalEdgeStyle;rounded=0;orthogonalLoop=1;jettySize=auto;html=1;entryX=0;entryY=0.5;entryDx=0;entryDy=0;entryPerimeter=0;" parent="VvUdo0zjaCuZu8YFKnKq-3" source="x7NhefQ3XoewuiwnYH2W-1" target="VvUdo0zjaCuZu8YFKnKq-34" edge="1">
          <mxGeometry relative="1" as="geometry" />
        </mxCell>
        <mxCell id="7WDWEMYJrdUVoe0Sw8bg-0" value="Yes" style="edgeLabel;html=1;align=center;verticalAlign=middle;resizable=0;points=[];" parent="x7NhefQ3XoewuiwnYH2W-2" vertex="1" connectable="0">
          <mxGeometry x="-0.16" y="1" relative="1" as="geometry">
            <mxPoint as="offset" />
          </mxGeometry>
        </mxCell>
        <mxCell id="VvUdo0zjaCuZu8YFKnKq-32" value="" style="edgeStyle=orthogonalEdgeStyle;rounded=0;orthogonalLoop=1;jettySize=auto;html=1;entryX=0;entryY=0.5;entryDx=0;entryDy=0;entryPerimeter=0;" parent="VvUdo0zjaCuZu8YFKnKq-3" source="VvUdo0zjaCuZu8YFKnKq-5" target="x7NhefQ3XoewuiwnYH2W-1" edge="1">
          <mxGeometry relative="1" as="geometry">
            <mxPoint x="700" y="100" as="sourcePoint" />
            <mxPoint x="700" y="100" as="targetPoint" />
          </mxGeometry>
        </mxCell>
        <mxCell id="VvUdo0zjaCuZu8YFKnKq-17" value="" style="ellipse;whiteSpace=wrap;html=1;aspect=fixed;fillColor=#000000;" parent="VvUdo0zjaCuZu8YFKnKq-3" vertex="1">
          <mxGeometry x="1310" y="75" width="50" height="50" as="geometry" />
        </mxCell>
        <mxCell id="VvUdo0zjaCuZu8YFKnKq-41" value="Close ride" style="points=[[0.25,0,0],[0.5,0,0],[0.75,0,0],[1,0.25,0],[1,0.5,0],[1,0.75,0],[0.75,1,0],[0.5,1,0],[0.25,1,0],[0,0.75,0],[0,0.5,0],[0,0.25,0]];shape=mxgraph.bpmn.task;whiteSpace=wrap;rectStyle=rounded;size=10;html=1;container=1;expand=0;collapsible=0;taskMarker=abstract;" parent="VvUdo0zjaCuZu8YFKnKq-3" vertex="1">
          <mxGeometry x="1103" y="60" width="120" height="80" as="geometry" />
        </mxCell>
        <mxCell id="VvUdo0zjaCuZu8YFKnKq-40" style="edgeStyle=orthogonalEdgeStyle;rounded=0;orthogonalLoop=1;jettySize=auto;html=1;" parent="VvUdo0zjaCuZu8YFKnKq-3" source="VvUdo0zjaCuZu8YFKnKq-41" target="VvUdo0zjaCuZu8YFKnKq-17" edge="1">
          <mxGeometry relative="1" as="geometry">
            <mxPoint x="1240" y="100" as="targetPoint" />
          </mxGeometry>
        </mxCell>
        <mxCell id="VvUdo0zjaCuZu8YFKnKq-8" value="prc-ride" style="swimlane;horizontal=0;whiteSpace=wrap;html=1;" parent="VvUdo0zjaCuZu8YFKnKq-1" vertex="1">
          <mxGeometry x="-1100" y="-170" width="2000" height="200" as="geometry" />
        </mxCell>
        <mxCell id="7WDWEMYJrdUVoe0Sw8bg-1" value="Update Driver profie survey data" style="points=[[0.25,0,0],[0.5,0,0],[0.75,0,0],[1,0.25,0],[1,0.5,0],[1,0.75,0],[0.75,1,0],[0.5,1,0],[0.25,1,0],[0,0.75,0],[0,0.5,0],[0,0.25,0]];shape=mxgraph.bpmn.task;whiteSpace=wrap;rectStyle=rounded;size=10;html=1;container=1;expand=0;collapsible=0;taskMarker=abstract;" parent="VvUdo0zjaCuZu8YFKnKq-8" vertex="1">
          <mxGeometry x="1023" y="60" width="120" height="80" as="geometry" />
        </mxCell>
        <mxCell id="VvUdo0zjaCuZu8YFKnKq-9" value="sys-notifications" style="swimlane;horizontal=0;whiteSpace=wrap;html=1;" parent="VvUdo0zjaCuZu8YFKnKq-1" vertex="1">
          <mxGeometry x="-1100" y="-370" width="2000" height="200" as="geometry" />
        </mxCell>
        <mxCell id="VvUdo0zjaCuZu8YFKnKq-10" value="Send notification to client" style="points=[[0.25,0,0],[0.5,0,0],[0.75,0,0],[1,0.25,0],[1,0.5,0],[1,0.75,0],[0.75,1,0],[0.5,1,0],[0.25,1,0],[0,0.75,0],[0,0.5,0],[0,0.25,0]];shape=mxgraph.bpmn.task;whiteSpace=wrap;rectStyle=rounded;size=10;html=1;container=1;expand=0;collapsible=0;taskMarker=abstract;" parent="VvUdo0zjaCuZu8YFKnKq-9" vertex="1">
          <mxGeometry x="170" y="60" width="120" height="80" as="geometry" />
        </mxCell>
        <mxCell id="VvUdo0zjaCuZu8YFKnKq-11" value="" style="points=[[0.145,0.145,0],[0.5,0,0],[0.855,0.145,0],[1,0.5,0],[0.855,0.855,0],[0.5,1,0],[0.145,0.855,0],[0,0.5,0]];shape=mxgraph.bpmn.event;html=1;verticalLabelPosition=bottom;labelBackgroundColor=#ffffff;verticalAlign=top;align=center;perimeter=ellipsePerimeter;outlineConnect=0;aspect=fixed;outline=standard;symbol=general;" parent="VvUdo0zjaCuZu8YFKnKq-9" vertex="1">
          <mxGeometry x="70" y="75" width="50" height="50" as="geometry" />
        </mxCell>
        <mxCell id="VvUdo0zjaCuZu8YFKnKq-12" style="edgeStyle=orthogonalEdgeStyle;rounded=0;orthogonalLoop=1;jettySize=auto;html=1;entryX=0;entryY=0.5;entryDx=0;entryDy=0;entryPerimeter=0;" parent="VvUdo0zjaCuZu8YFKnKq-9" source="VvUdo0zjaCuZu8YFKnKq-11" target="VvUdo0zjaCuZu8YFKnKq-10" edge="1">
          <mxGeometry relative="1" as="geometry" />
        </mxCell>
        <mxCell id="VvUdo0zjaCuZu8YFKnKq-13" style="edgeStyle=orthogonalEdgeStyle;rounded=0;orthogonalLoop=1;jettySize=auto;html=1;" parent="VvUdo0zjaCuZu8YFKnKq-1" edge="1">
          <mxGeometry relative="1" as="geometry">
            <mxPoint x="1950" y="-50" as="sourcePoint" />
            <Array as="points">
              <mxPoint x="1950" y="-410" />
            </Array>
          </mxGeometry>
        </mxCell>
        <mxCell id="VvUdo0zjaCuZu8YFKnKq-14" value="sys-ride-express-db" style="swimlane;horizontal=0;whiteSpace=wrap;html=1;" parent="VvUdo0zjaCuZu8YFKnKq-1" vertex="1">
          <mxGeometry x="-1100" y="-770" width="2000" height="200" as="geometry" />
        </mxCell>
        <mxCell id="VvUdo0zjaCuZu8YFKnKq-15" value="Get Ride" style="points=[[0.25,0,0],[0.5,0,0],[0.75,0,0],[1,0.25,0],[1,0.5,0],[1,0.75,0],[0.75,1,0],[0.5,1,0],[0.25,1,0],[0,0.75,0],[0,0.5,0],[0,0.25,0]];shape=mxgraph.bpmn.task;whiteSpace=wrap;rectStyle=rounded;size=10;html=1;container=1;expand=0;collapsible=0;taskMarker=abstract;" parent="VvUdo0zjaCuZu8YFKnKq-14" vertex="1">
          <mxGeometry x="390" y="50" width="120" height="80" as="geometry" />
        </mxCell>
        <mxCell id="VvUdo0zjaCuZu8YFKnKq-16" value="Update Ride" style="points=[[0.25,0,0],[0.5,0,0],[0.75,0,0],[1,0.25,0],[1,0.5,0],[1,0.75,0],[0.75,1,0],[0.5,1,0],[0.25,1,0],[0,0.75,0],[0,0.5,0],[0,0.25,0]];shape=mxgraph.bpmn.task;whiteSpace=wrap;rectStyle=rounded;size=10;html=1;container=1;expand=0;collapsible=0;taskMarker=abstract;" parent="VvUdo0zjaCuZu8YFKnKq-14" vertex="1">
          <mxGeometry x="833" y="60" width="120" height="80" as="geometry" />
        </mxCell>
        <mxCell id="VvUdo0zjaCuZu8YFKnKq-19" value="Get ride information" style="points=[[0.25,0,0],[0.5,0,0],[0.75,0,0],[1,0.25,0],[1,0.5,0],[1,0.75,0],[0.75,1,0],[0.5,1,0],[0.25,1,0],[0,0.75,0],[0,0.5,0],[0,0.25,0]];shape=mxgraph.bpmn.task;whiteSpace=wrap;rectStyle=rounded;size=10;html=1;container=1;expand=0;collapsible=0;taskMarker=abstract;" parent="VvUdo0zjaCuZu8YFKnKq-1" vertex="1">
          <mxGeometry x="-810" y="80" width="120" height="80" as="geometry" />
        </mxCell>
        <mxCell id="VvUdo0zjaCuZu8YFKnKq-20" value="Gets ride Information" style="points=[[0.25,0,0],[0.5,0,0],[0.75,0,0],[1,0.25,0],[1,0.5,0],[1,0.75,0],[0.75,1,0],[0.5,1,0],[0.25,1,0],[0,0.75,0],[0,0.5,0],[0,0.25,0]];shape=mxgraph.bpmn.task;whiteSpace=wrap;rectStyle=rounded;size=10;html=1;container=1;expand=0;collapsible=0;taskMarker=abstract;" parent="VvUdo0zjaCuZu8YFKnKq-1" vertex="1">
          <mxGeometry x="-930" y="290" width="120" height="80" as="geometry" />
        </mxCell>
        <mxCell id="VvUdo0zjaCuZu8YFKnKq-21" value="Get Ride information" style="points=[[0.25,0,0],[0.5,0,0],[0.75,0,0],[1,0.25,0],[1,0.5,0],[1,0.75,0],[0.75,1,0],[0.5,1,0],[0.25,1,0],[0,0.75,0],[0,0.5,0],[0,0.25,0]];shape=mxgraph.bpmn.task;whiteSpace=wrap;rectStyle=rounded;size=10;html=1;container=1;expand=0;collapsible=0;taskMarker=abstract;" parent="VvUdo0zjaCuZu8YFKnKq-1" vertex="1">
          <mxGeometry x="-810" y="-120" width="120" height="80" as="geometry" />
        </mxCell>
        <mxCell id="VvUdo0zjaCuZu8YFKnKq-22" style="edgeStyle=orthogonalEdgeStyle;rounded=0;orthogonalLoop=1;jettySize=auto;html=1;exitX=1;exitY=0.5;exitDx=0;exitDy=0;exitPerimeter=0;" parent="VvUdo0zjaCuZu8YFKnKq-1" source="VvUdo0zjaCuZu8YFKnKq-21" target="VvUdo0zjaCuZu8YFKnKq-15" edge="1">
          <mxGeometry relative="1" as="geometry">
            <mxPoint x="-210" y="-120" as="sourcePoint" />
          </mxGeometry>
        </mxCell>
        <mxCell id="VvUdo0zjaCuZu8YFKnKq-23" value="GET /ride/{id}" style="edgeLabel;html=1;align=center;verticalAlign=middle;resizable=0;points=[];" parent="VvUdo0zjaCuZu8YFKnKq-22" vertex="1" connectable="0">
          <mxGeometry x="-0.2577" y="3" relative="1" as="geometry">
            <mxPoint as="offset" />
          </mxGeometry>
        </mxCell>
        <mxCell id="VvUdo0zjaCuZu8YFKnKq-24" style="edgeStyle=orthogonalEdgeStyle;rounded=0;orthogonalLoop=1;jettySize=auto;html=1;entryX=0.5;entryY=0;entryDx=0;entryDy=0;entryPerimeter=0;" parent="VvUdo0zjaCuZu8YFKnKq-1" source="VvUdo0zjaCuZu8YFKnKq-15" edge="1">
          <mxGeometry relative="1" as="geometry">
            <mxPoint x="-520" y="290" as="targetPoint" />
          </mxGeometry>
        </mxCell>
        <mxCell id="VvUdo0zjaCuZu8YFKnKq-25" style="edgeStyle=orthogonalEdgeStyle;rounded=0;orthogonalLoop=1;jettySize=auto;html=1;" parent="VvUdo0zjaCuZu8YFKnKq-1" source="VvUdo0zjaCuZu8YFKnKq-20" edge="1">
          <mxGeometry relative="1" as="geometry">
            <mxPoint x="-750" y="160" as="targetPoint" />
            <Array as="points">
              <mxPoint x="-750" y="330" />
            </Array>
          </mxGeometry>
        </mxCell>
        <mxCell id="VvUdo0zjaCuZu8YFKnKq-26" value="GET /ride/{id}" style="edgeLabel;html=1;align=center;verticalAlign=middle;resizable=0;points=[];" parent="VvUdo0zjaCuZu8YFKnKq-25" vertex="1" connectable="0">
          <mxGeometry x="0.113" y="1" relative="1" as="geometry">
            <mxPoint as="offset" />
          </mxGeometry>
        </mxCell>
        <mxCell id="VvUdo0zjaCuZu8YFKnKq-27" value="" style="edgeStyle=orthogonalEdgeStyle;rounded=0;orthogonalLoop=1;jettySize=auto;html=1;" parent="VvUdo0zjaCuZu8YFKnKq-1" source="VvUdo0zjaCuZu8YFKnKq-19" target="VvUdo0zjaCuZu8YFKnKq-21" edge="1">
          <mxGeometry relative="1" as="geometry" />
        </mxCell>
        <mxCell id="VvUdo0zjaCuZu8YFKnKq-28" value="GET /ride/{id}" style="edgeLabel;html=1;align=center;verticalAlign=middle;resizable=0;points=[];" parent="VvUdo0zjaCuZu8YFKnKq-27" vertex="1" connectable="0">
          <mxGeometry x="0.0125" y="2" relative="1" as="geometry">
            <mxPoint as="offset" />
          </mxGeometry>
        </mxCell>
        <mxCell id="VvUdo0zjaCuZu8YFKnKq-29" style="edgeStyle=orthogonalEdgeStyle;rounded=0;orthogonalLoop=1;jettySize=auto;html=1;" parent="VvUdo0zjaCuZu8YFKnKq-1" source="VvUdo0zjaCuZu8YFKnKq-10" target="VvUdo0zjaCuZu8YFKnKq-20" edge="1">
          <mxGeometry relative="1" as="geometry" />
        </mxCell>
        <mxCell id="x7NhefQ3XoewuiwnYH2W-0" value="PUSH Ride Id" style="edgeLabel;html=1;align=center;verticalAlign=middle;resizable=0;points=[];" parent="VvUdo0zjaCuZu8YFKnKq-29" vertex="1" connectable="0">
          <mxGeometry x="0.2269" y="-1" relative="1" as="geometry">
            <mxPoint as="offset" />
          </mxGeometry>
        </mxCell>
        <mxCell id="VvUdo0zjaCuZu8YFKnKq-33" value="" style="edgeStyle=orthogonalEdgeStyle;rounded=0;orthogonalLoop=1;jettySize=auto;html=1;entryX=0.5;entryY=0;entryDx=0;entryDy=0;entryPerimeter=0;exitX=1;exitY=0.5;exitDx=0;exitDy=0;exitPerimeter=0;" parent="VvUdo0zjaCuZu8YFKnKq-1" source="tqwcumiHTZXrV8akWIam-1" target="VvUdo0zjaCuZu8YFKnKq-41" edge="1">
          <mxGeometry relative="1" as="geometry">
            <mxPoint x="-40" y="330" as="targetPoint" />
            <Array as="points">
              <mxPoint x="63" y="-470" />
              <mxPoint x="63" y="280" />
            </Array>
          </mxGeometry>
        </mxCell>
        <mxCell id="VvUdo0zjaCuZu8YFKnKq-52" value="Update Ride with client information" style="points=[[0.25,0,0],[0.5,0,0],[0.75,0,0],[1,0.25,0],[1,0.5,0],[1,0.75,0],[0.75,1,0],[0.5,1,0],[0.25,1,0],[0,0.75,0],[0,0.5,0],[0,0.25,0]];shape=mxgraph.bpmn.task;whiteSpace=wrap;rectStyle=rounded;size=10;html=1;container=1;expand=0;collapsible=0;taskMarker=abstract;" parent="VvUdo0zjaCuZu8YFKnKq-1" vertex="1">
          <mxGeometry x="-267" y="100" width="120" height="80" as="geometry" />
        </mxCell>
        <mxCell id="7WDWEMYJrdUVoe0Sw8bg-2" style="edgeStyle=orthogonalEdgeStyle;rounded=0;orthogonalLoop=1;jettySize=auto;html=1;exitX=1;exitY=0.5;exitDx=0;exitDy=0;exitPerimeter=0;" parent="VvUdo0zjaCuZu8YFKnKq-1" source="VvUdo0zjaCuZu8YFKnKq-16" target="7WDWEMYJrdUVoe0Sw8bg-1" edge="1">
          <mxGeometry relative="1" as="geometry">
            <Array as="points">
              <mxPoint x="-110" y="-670" />
              <mxPoint x="-110" y="-70" />
            </Array>
          </mxGeometry>
        </mxCell>
        <mxCell id="VvUdo0zjaCuZu8YFKnKq-53" value="Update Ride survey data" style="points=[[0.25,0,0],[0.5,0,0],[0.75,0,0],[1,0.25,0],[1,0.5,0],[1,0.75,0],[0.75,1,0],[0.5,1,0],[0.25,1,0],[0,0.75,0],[0,0.5,0],[0,0.25,0]];shape=mxgraph.bpmn.task;whiteSpace=wrap;rectStyle=rounded;size=10;html=1;container=1;expand=0;collapsible=0;taskMarker=abstract;" parent="VvUdo0zjaCuZu8YFKnKq-1" vertex="1">
          <mxGeometry x="-267" y="-110" width="120" height="80" as="geometry" />
        </mxCell>
        <mxCell id="VvUdo0zjaCuZu8YFKnKq-54" value="POST /ride/{id}/feedback" style="edgeLabel;html=1;align=center;verticalAlign=middle;resizable=0;points=[];" parent="VvUdo0zjaCuZu8YFKnKq-1" vertex="1" connectable="0">
          <mxGeometry x="-210" y="246" as="geometry" />
        </mxCell>
        <mxCell id="VvUdo0zjaCuZu8YFKnKq-55" style="edgeStyle=orthogonalEdgeStyle;rounded=0;orthogonalLoop=1;jettySize=auto;html=1;entryX=0.5;entryY=1;entryDx=0;entryDy=0;entryPerimeter=0;" parent="VvUdo0zjaCuZu8YFKnKq-1" source="VvUdo0zjaCuZu8YFKnKq-52" target="VvUdo0zjaCuZu8YFKnKq-53" edge="1">
          <mxGeometry relative="1" as="geometry" />
        </mxCell>
        <mxCell id="VvUdo0zjaCuZu8YFKnKq-56" style="edgeStyle=orthogonalEdgeStyle;rounded=0;orthogonalLoop=1;jettySize=auto;html=1;entryX=0.5;entryY=1;entryDx=0;entryDy=0;entryPerimeter=0;" parent="VvUdo0zjaCuZu8YFKnKq-1" source="VvUdo0zjaCuZu8YFKnKq-53" target="VvUdo0zjaCuZu8YFKnKq-16" edge="1">
          <mxGeometry relative="1" as="geometry" />
        </mxCell>
        <mxCell id="VvUdo0zjaCuZu8YFKnKq-57" value="POST /ride/{id}/feedback" style="edgeLabel;html=1;align=center;verticalAlign=middle;resizable=0;points=[];" parent="VvUdo0zjaCuZu8YFKnKq-56" vertex="1" connectable="0">
          <mxGeometry x="-0.4231" y="1" relative="1" as="geometry">
            <mxPoint as="offset" />
          </mxGeometry>
        </mxCell>
        <mxCell id="VvUdo0zjaCuZu8YFKnKq-58" style="edgeStyle=orthogonalEdgeStyle;rounded=0;orthogonalLoop=1;jettySize=auto;html=1;entryX=0.5;entryY=1;entryDx=0;entryDy=0;entryPerimeter=0;" parent="VvUdo0zjaCuZu8YFKnKq-1" target="VvUdo0zjaCuZu8YFKnKq-52" edge="1">
          <mxGeometry relative="1" as="geometry">
            <mxPoint x="-207" y="290" as="sourcePoint" />
          </mxGeometry>
        </mxCell>
        <mxCell id="VvUdo0zjaCuZu8YFKnKq-59" value="&lt;h1&gt;Diagram for the interaction between the Client and the Exp API when it&#39;s finishing a ride&lt;br&gt;&lt;/h1&gt;" style="text;html=1;align=center;verticalAlign=middle;resizable=0;points=[];autosize=1;strokeColor=none;fillColor=none;" parent="VvUdo0zjaCuZu8YFKnKq-1" vertex="1">
          <mxGeometry x="-1100" y="-850" width="1020" height="70" as="geometry" />
        </mxCell>
        <mxCell id="x7NhefQ3XoewuiwnYH2W-4" style="edgeStyle=orthogonalEdgeStyle;rounded=0;orthogonalLoop=1;jettySize=auto;html=1;" parent="VvUdo0zjaCuZu8YFKnKq-1" source="x7NhefQ3XoewuiwnYH2W-1" target="x7NhefQ3XoewuiwnYH2W-3" edge="1">
          <mxGeometry relative="1" as="geometry" />
        </mxCell>
        <mxCell id="x7NhefQ3XoewuiwnYH2W-5" value="No" style="edgeLabel;html=1;align=center;verticalAlign=middle;resizable=0;points=[];" parent="x7NhefQ3XoewuiwnYH2W-4" vertex="1" connectable="0">
          <mxGeometry x="-0.3" relative="1" as="geometry">
            <mxPoint as="offset" />
          </mxGeometry>
        </mxCell>
        <mxCell id="tqwcumiHTZXrV8akWIam-0" value="sys-drivers" style="swimlane;horizontal=0;whiteSpace=wrap;html=1;" parent="VvUdo0zjaCuZu8YFKnKq-1" vertex="1">
          <mxGeometry x="-1100" y="-570" width="2000" height="200" as="geometry" />
        </mxCell>
        <mxCell id="tqwcumiHTZXrV8akWIam-1" value="Update Driver profie survey data" style="points=[[0.25,0,0],[0.5,0,0],[0.75,0,0],[1,0.25,0],[1,0.5,0],[1,0.75,0],[0.75,1,0],[0.5,1,0],[0.25,1,0],[0,0.75,0],[0,0.5,0],[0,0.25,0]];shape=mxgraph.bpmn.task;whiteSpace=wrap;rectStyle=rounded;size=10;html=1;container=1;expand=0;collapsible=0;taskMarker=abstract;" parent="tqwcumiHTZXrV8akWIam-0" vertex="1">
          <mxGeometry x="1023" y="60" width="120" height="80" as="geometry" />
        </mxCell>
        <mxCell id="tqwcumiHTZXrV8akWIam-2" value="" style="edgeStyle=orthogonalEdgeStyle;rounded=0;orthogonalLoop=1;jettySize=auto;html=1;" parent="VvUdo0zjaCuZu8YFKnKq-1" source="7WDWEMYJrdUVoe0Sw8bg-1" target="tqwcumiHTZXrV8akWIam-1" edge="1">
          <mxGeometry relative="1" as="geometry" />
        </mxCell>
        <mxCell id="tqwcumiHTZXrV8akWIam-3" value="POST /drivers/{id}/feedback" style="edgeLabel;html=1;align=center;verticalAlign=middle;resizable=0;points=[];" parent="tqwcumiHTZXrV8akWIam-2" vertex="1" connectable="0">
          <mxGeometry x="-0.1062" y="4" relative="1" as="geometry">
            <mxPoint as="offset" />
          </mxGeometry>
        </mxCell>
      </root>
    </mxGraphModel>
  </diagram>
</mxfile>
